<?xml version="1.0" encoding="UTF-8"?>
<svg width="15px" height="15px" viewBox="0 0 15 15" version="1.1" xmlns="http://www.w3.org/2000/svg" xmlns:xlink="http://www.w3.org/1999/xlink">
    <!-- Generator: Sketch 50.2 (55047) - http://www.bohemiancoding.com/sketch -->
    <title>noun_Calendar_1585332</title>
    <desc>Created with Sketch.</desc>
    <defs></defs>
    <g id="Page-1" stroke="none" stroke-width="1" fill="none" fill-rule="evenodd">
        <g id="Desktop-HD-Copy-12" transform="translate(-699.000000, -436.000000)" fill="#FFCC07" fill-rule="nonzero">
            <g id="noun_Calendar_1585332" transform="translate(699.000000, 436.000000)">
                <g id="Group">
                    <path d="M13.493125,2.1725 L12.494375,2.1725 L12.494375,1.17375 C12.494375,0.806875 12.195625,0.508125 11.82875,0.508125 L10.496875,0.508125 C10.13,0.508125 9.83125,0.806875 9.83125,1.17375 L9.83125,2.1725 L5.169375,2.1725 L5.169375,1.17375 C5.169375,0.806875 4.870625,0.508125 4.50375,0.508125 L3.17125,0.508125 C2.804375,0.508125 2.505625,0.806875 2.505625,1.17375 L2.505625,2.1725 L1.506875,2.1725 C0.95625,2.1725 0.508125,2.620625 0.508125,3.17125 L0.508125,13.493125 C0.508125,14.04375 0.95625,14.491875 1.506875,14.491875 L13.49375,14.491875 C14.044375,14.491875 14.4925,14.04375 14.4925,13.493125 L14.4925,3.17125 C14.4925,2.620625 14.044375,2.1725 13.493125,2.1725 Z M10.496875,1.17375 L11.82875,1.17375 L11.82875,3.17125 L10.496875,3.17125 L10.496875,1.17375 Z M3.17125,1.17375 L4.503125,1.17375 L4.503125,3.17125 L3.17125,3.17125 L3.17125,1.17375 Z M13.82625,13.493125 C13.82625,13.676875 13.676875,13.82625 13.493125,13.82625 L1.506875,13.82625 C1.323125,13.82625 1.17375,13.676875 1.17375,13.493125 L1.17375,6.168125 L13.82625,6.168125 L13.82625,13.493125 Z M13.82625,5.5025 L1.17375,5.5025 L1.17375,3.17125 C1.17375,2.9875 1.323125,2.838125 1.506875,2.838125 L2.505625,2.838125 L2.505625,3.8375 L5.169375,3.8375 L5.169375,2.83875 L9.830625,2.83875 L9.830625,3.8375 L12.494375,3.8375 L12.494375,2.83875 L13.493125,2.83875 C13.676875,2.83875 13.82625,2.988125 13.82625,3.171875 L13.82625,5.5025 Z" id="Shape"></path>
                    <rect id="Rectangle-path" x="8.2625" y="7.833125" width="1.331875" height="1"></rect>
                    <rect id="Rectangle-path" x="10.92625" y="7.833125" width="1.331875" height="1"></rect>
                    <rect id="Rectangle-path" x="5.59875" y="9.4975" width="1.331875" height="1"></rect>
                    <rect id="Rectangle-path" x="8.2625" y="9.4975" width="1.331875" height="1"></rect>
                    <rect id="Rectangle-path" x="10.92625" y="9.4975" width="1.331875" height="1"></rect>
                    <rect id="Rectangle-path" x="5.59875" y="11.1625" width="1.331875" height="1"></rect>
                    <rect id="Rectangle-path" x="8.2625" y="11.1625" width="1.331875" height="1"></rect>
                    <rect id="Rectangle-path" x="10.92625" y="11.1625" width="1.331875" height="1"></rect>
                </g>
            </g>
        </g>
    </g>
</svg>